<svg width="40" height="40" viewBox="0 0 40 40" fill="none" xmlns="http://www.w3.org/2000/svg">
<g clip-path="url(#clip0_59_20)">
<path d="M31.144 21.041C31.3691 23.1774 31.0789 25.3881 30.1898 27.4763V27.4771L33.2761 31.463C33.5523 31.8198 34.0702 31.8688 34.4122 31.5745C37.1835 29.1897 39.0172 25.7472 39.2889 21.8734C39.3205 21.4225 38.9577 21.0411 38.5056 21.0411H31.144V21.041Z" fill="#5477BB"/>
<path d="M23.3951 0.785002V10.5314C26.0097 11.6629 28.1802 13.6333 29.566 16.1004H38.5259C38.9689 16.1004 39.3274 15.7337 39.3103 15.291C38.9914 7.00563 32.3855 0.415487 24.2131 0.00100847C23.7672 -0.0215909 23.3951 0.338586 23.3951 0.785002Z" fill="#5477BB"/>
<path d="M18.4023 35.3728C11.2689 35.4466 5.3738 29.6629 5.31612 22.5293C5.25798 15.3399 11.0901 9.47207 18.2664 9.47207V5.64972C18.2664 5.20244 17.893 4.84461 17.4462 4.8651C8.12009 5.29354 0.689135 12.9903 0.689056 22.4228C0.689056 32.1492 8.65565 40.0623 18.3818 39.9998C22.0497 39.9762 25.4499 38.8297 28.2568 36.8869C28.626 36.6313 28.7037 36.1169 28.4288 35.7618L26.0882 32.7386C23.9467 34.3656 21.2863 35.343 18.4023 35.3728Z" fill="#5477BB"/>
<path d="M7.66974 22.4228C7.66974 28.2656 12.4235 33.0193 18.2663 33.0193C24.1086 33.0193 28.8629 28.2666 28.8629 22.4228C28.8629 16.58 24.1086 11.8262 18.2663 11.8262C12.4235 11.8262 7.66974 16.5799 7.66974 22.4228ZM19.4434 15.3832V16.5061C20.6501 16.5061 21.7183 17.0194 22.4715 17.8228C22.9157 18.2968 22.8913 19.0423 22.4174 19.4864C21.9463 19.9277 21.2045 19.9109 20.7538 19.4323C20.4164 19.0729 19.9566 18.8641 19.4912 18.8602C18.5388 18.8602 17.8949 18.8602 16.9465 18.8602C16.2868 18.8602 15.7537 19.3947 15.7537 20.053C15.7537 20.7105 16.2889 21.2457 16.9472 21.2457H19.5862C21.5417 21.2457 23.133 22.8371 23.133 24.7926C23.133 26.6198 21.7276 28.3402 19.4434 28.3402V29.4623C19.4434 30.112 18.9168 30.6394 18.2663 30.6394C17.6166 30.6394 17.0893 30.112 17.0893 29.4623V28.3402C16.2602 28.3402 15.4433 28.2504 14.4864 27.5869C13.9528 27.2165 13.8202 26.4828 14.1906 25.9492C14.561 25.4148 15.2947 25.2822 15.8283 25.6526C16.1108 25.8503 16.4616 25.9815 16.8107 25.9861H19.5862C20.2417 25.9861 20.7789 25.4569 20.7789 24.7926C20.7789 24.135 20.2438 23.5998 19.5862 23.5998C18.4184 23.5998 18.1777 23.5998 16.9472 23.5998C14.991 23.5998 13.3996 22.0084 13.3996 20.053C13.3996 18.22 14.8101 16.5061 17.0893 16.5061V15.3832C17.0893 14.7335 17.6166 14.2062 18.2663 14.2062C18.9168 14.2062 19.4434 14.7335 19.4434 15.3832Z" fill="#5477BB"/>
</g>
<defs>
<clipPath id="clip0_59_20">
<rect width="40" height="40" fill="white"/>
</clipPath>
</defs>
</svg>
