<svg width="40" height="40" viewBox="0 0 40 40" fill="none" xmlns="http://www.w3.org/2000/svg">
<g clip-path="url(#clip0_421_91)">
<path d="M31.3573 4.25513H17.3524V8.16829C19.9778 8.41315 22.4139 9.55336 24.3019 11.4413C25.6064 12.7458 26.5533 14.3122 27.0954 16.0218H35.6915V18.3739H27.5735C27.6077 18.7342 27.6253 19.098 27.6253 19.4645C27.6253 19.7654 27.6132 20.0645 27.5901 20.3614H35.6915V22.7134H27.1552C26.9333 23.4601 26.6344 24.1806 26.2629 24.8653H28.8331V27.2173H24.5627C24.4773 27.3085 24.3908 27.3989 24.3019 27.4878C22.4141 29.3756 19.978 30.5158 17.3525 30.7607V32.4695H40.0001V12.8722H31.3573V4.25513Z" fill="#5477BB"/>
<path d="M39.3098 10.5201L33.7094 4.94263V10.5201H39.3098Z" fill="#5477BB"/>
<path d="M10.7394 26.6588C12.3198 27.8808 14.2483 28.5433 16.2787 28.5433C18.7037 28.5433 20.9836 27.599 22.6982 25.8842C24.413 24.1695 25.3573 21.8896 25.3573 19.4646C25.3573 17.0396 24.4129 14.7598 22.6982 13.0451C20.9835 11.3303 18.7037 10.386 16.2787 10.386C13.8538 10.386 11.5739 11.3303 9.8592 13.0451C6.59974 16.3045 6.34183 21.446 9.08498 25.0035L7.92217 26.1664L7.16899 26.2295L4.71667 26.4347L9.30865 31.0268L9.51378 28.5765L9.57696 27.8213L10.7394 26.6588ZM11.514 14.6999C12.7867 13.4272 14.4789 12.7263 16.2786 12.7263C18.0785 12.7263 19.7707 13.4272 21.0434 14.6999C22.3161 15.9726 23.017 17.6647 23.017 19.4646C23.017 21.2644 22.3161 22.9565 21.0434 24.2293C19.7707 25.502 18.0786 26.2029 16.2786 26.2029C14.4788 26.2029 12.7867 25.502 11.514 24.2293C10.2413 22.9565 9.54044 21.2644 9.54044 19.4646C9.54044 17.6647 10.2413 15.9726 11.514 14.6999Z" fill="#5477BB"/>
<path d="M0.963725 30.1186C-0.321242 31.4036 -0.321242 33.4946 0.963725 34.7796C1.58623 35.4021 2.41386 35.7449 3.29428 35.7449C4.1747 35.7449 5.00233 35.4021 5.62475 34.7796L7.68816 32.7162L3.02713 28.0552L0.963725 30.1186Z" fill="#5477BB"/>
</g>
<defs>
<clipPath id="clip0_421_91">
<rect width="40" height="40" fill="white"/>
</clipPath>
</defs>
</svg>
