<svg width="40" height="40" viewBox="0 0 40 40" fill="none" xmlns="http://www.w3.org/2000/svg">
<path d="M30.4307 6.82984C30.4307 5.89141 30.0644 5.00797 29.4007 4.34422L26.0865 1.03C25.4319 0.375391 24.5028 0 23.5781 0H23.3767V7.03125H30.4308L30.4307 6.82984Z" fill="#5477BB"/>
<path d="M21.4013 24.1826C21.6256 23.5016 22.017 22.8677 22.5274 22.3538L30.462 14.4513V9.375H22.2276C21.5798 9.375 21.0938 8.85086 21.0938 8.20312V0H3.51562C1.57703 0 0 1.57703 0 3.51562V36.4844C0 38.423 1.57703 40 3.51562 40H26.9151C28.8537 40 30.462 38.423 30.462 36.4844V27.7382L29.1741 28.9948C28.6523 29.512 28.0413 29.8885 27.3523 30.1186L23.6261 31.3626L23.0584 31.3935C22.12 31.3935 21.232 30.9369 20.6804 30.1724C20.1334 29.4114 19.9846 28.4249 20.2821 27.5334L21.4013 24.1826ZM5.85938 21.0938H17.5401C18.1878 21.0938 18.712 21.6179 18.712 22.2656C18.712 22.9134 18.1878 23.4375 17.5401 23.4375H5.85938C5.21164 23.4375 4.6875 22.9134 4.6875 22.2656C4.6875 21.6179 5.21164 21.0938 5.85938 21.0938ZM4.6875 17.5781C4.6875 16.9304 5.21164 16.4062 5.85938 16.4062H17.5401C18.1878 16.4062 18.712 16.9304 18.712 17.5781C18.712 18.2259 18.1878 18.75 17.5401 18.75H5.85938C5.21164 18.75 4.6875 18.2259 4.6875 17.5781ZM4.6875 26.9531C4.6875 26.3054 5.21164 25.7812 5.85938 25.7812H17.5401C18.1878 25.7812 18.712 26.3054 18.712 26.9531C18.712 27.6009 18.1878 28.125 17.5401 28.125H5.85938C5.21164 28.125 4.6875 27.6009 4.6875 26.9531ZM22.2276 32.8125C22.8753 32.8125 23.3995 33.3366 23.3995 33.9844C23.3995 34.6321 22.8754 35.1562 22.2276 35.1562H15.1963C14.5486 35.1562 14.0245 34.6321 14.0245 33.9844C14.0245 33.3366 14.5486 32.8125 15.1963 32.8125H22.2276ZM5.85938 14.0625C5.21164 14.0625 4.6875 13.5384 4.6875 12.8906C4.6875 12.2429 5.21164 11.7188 5.85938 11.7188H22.2276C22.8753 11.7188 23.3995 12.2429 23.3995 12.8906C23.3995 13.5384 22.8753 14.0625 22.2276 14.0625H5.85938Z" fill="#5477BB"/>
<path d="M23.5243 25.2192L22.5048 28.2779C22.352 28.7361 22.788 29.172 23.2462 29.0189L26.3031 27.998L23.5243 25.2192Z" fill="#5477BB"/>
<path d="M32.6257 15.5708L24.9078 23.2887L28.2363 26.6172C29.9807 24.8725 33.3748 21.4779 35.9538 18.8989L32.6257 15.5708Z" fill="#5477BB"/>
<path d="M39.3114 12.2098C38.8994 11.7955 38.2929 11.5586 37.6496 11.5586C37.0064 11.5586 36.4 11.7955 35.9857 12.2109L34.2828 13.9138L37.6107 17.2418C38.543 16.3095 39.1874 15.6651 39.3138 15.5387C40.2292 14.622 40.2291 13.1287 39.3114 12.2098Z" fill="#5477BB"/>
<path d="M39.3137 15.5386C39.3138 15.5386 39.3138 15.5385 39.3138 15.5385C39.3168 15.5355 39.3181 15.5342 39.3206 15.5317C39.3181 15.5342 39.3168 15.5356 39.3137 15.5386Z" fill="#5477BB"/>
<path d="M39.3206 15.5314C39.3243 15.5276 39.3287 15.5233 39.3309 15.521C39.3286 15.5233 39.3243 15.5276 39.3206 15.5314Z" fill="#5477BB"/>
<path d="M39.331 15.5214C39.3385 15.5138 39.3387 15.5136 39.331 15.5214V15.5214Z" fill="#5477BB"/>
</svg>
