<svg width="40" height="40" viewBox="0 0 40 40" fill="none" xmlns="http://www.w3.org/2000/svg">
<path d="M14.375 9.68757H25.625C25.8736 9.68757 26.1121 9.58879 26.2879 9.41298C26.4637 9.23716 26.5625 8.99871 26.5625 8.75007V4.37507C26.5625 4.12643 26.4637 3.88797 26.2879 3.71215C26.1121 3.53634 25.8736 3.43757 25.625 3.43757H23.9531C23.7418 2.54799 23.2366 1.7557 22.5193 1.18878C21.8019 0.621866 20.9143 0.313477 20 0.313477C19.0857 0.313477 18.1981 0.621866 17.4807 1.18878C16.7634 1.7557 16.2582 2.54799 16.0469 3.43757H14.375C14.1264 3.43757 13.8879 3.53634 13.7121 3.71215C13.5363 3.88797 13.4375 4.12643 13.4375 4.37507V8.75007C13.4375 8.99871 13.5363 9.23716 13.7121 9.41298C13.8879 9.58879 14.1264 9.68757 14.375 9.68757ZM20 3.43757C20.1854 3.43757 20.3667 3.49255 20.5208 3.59556C20.675 3.69858 20.7952 3.84499 20.8661 4.0163C20.9371 4.18761 20.9557 4.37611 20.9195 4.55796C20.8833 4.73982 20.794 4.90687 20.6629 5.03798C20.5318 5.16909 20.3648 5.25838 20.1829 5.29455C20.001 5.33073 19.8125 5.31216 19.6412 5.2412C19.4699 5.17025 19.3235 5.05008 19.2205 4.89591C19.1175 4.74174 19.0625 4.56049 19.0625 4.37507C19.0625 4.12643 19.1613 3.88797 19.3371 3.71215C19.5129 3.53634 19.7514 3.43757 20 3.43757Z" fill="#5477BB"/>
<path d="M13.125 17.1875H16.875C17.1236 17.1875 17.3621 17.0887 17.5379 16.9129C17.7137 16.7371 17.8125 16.4986 17.8125 16.25V12.5C17.8125 12.2514 17.7137 12.0129 17.5379 11.8371C17.3621 11.6613 17.1236 11.5625 16.875 11.5625H13.125C12.8764 11.5625 12.6379 11.6613 12.4621 11.8371C12.2863 12.0129 12.1875 12.2514 12.1875 12.5V16.25C12.1875 16.4986 12.2863 16.7371 12.4621 16.9129C12.6379 17.0887 12.8764 17.1875 13.125 17.1875ZM14.0625 13.4375H15.9375V15.3125H14.0625V13.4375Z" fill="#5477BB"/>
<path d="M13.125 25.3125H16.875C17.1236 25.3125 17.3621 25.2137 17.5379 25.0379C17.7137 24.8621 17.8125 24.6236 17.8125 24.375V20.625C17.8125 20.3764 17.7137 20.1379 17.5379 19.9621C17.3621 19.7863 17.1236 19.6875 16.875 19.6875H13.125C12.8764 19.6875 12.6379 19.7863 12.4621 19.9621C12.2863 20.1379 12.1875 20.3764 12.1875 20.625V24.375C12.1875 24.6236 12.2863 24.8621 12.4621 25.0379C12.6379 25.2137 12.8764 25.3125 13.125 25.3125ZM14.0625 21.5625H15.9375V23.4375H14.0625V21.5625Z" fill="#5477BB"/>
<path d="M20.625 13.4375C20.3764 13.4375 20.1379 13.5363 19.9621 13.7121C19.7863 13.8879 19.6875 14.1264 19.6875 14.375C19.6875 14.6236 19.7863 14.8621 19.9621 15.0379C20.1379 15.2137 20.3764 15.3125 20.625 15.3125H26.25C26.4986 15.3125 26.7371 15.2137 26.9129 15.0379C27.0887 14.8621 27.1875 14.6236 27.1875 14.375C27.1875 14.1264 27.0887 13.8879 26.9129 13.7121C26.7371 13.5363 26.4986 13.4375 26.25 13.4375H20.625Z" fill="#5477BB"/>
<path d="M26.25 21.5625H20.625C20.3764 21.5625 20.1379 21.6613 19.9621 21.8371C19.7863 22.0129 19.6875 22.2514 19.6875 22.5C19.6875 22.7486 19.7863 22.9871 19.9621 23.1629C20.1379 23.3387 20.3764 23.4375 20.625 23.4375H26.25C26.4986 23.4375 26.7371 23.3387 26.9129 23.1629C27.0887 22.9871 27.1875 22.7486 27.1875 22.5C27.1875 22.2514 27.0887 22.0129 26.9129 21.8371C26.7371 21.6613 26.4986 21.5625 26.25 21.5625Z" fill="#5477BB"/>
<path d="M31.5625 4.375V25C32.8736 24.9986 34.1637 25.3291 35.3125 25.9609V5.3125C35.3119 4.81539 35.1142 4.3388 34.7627 3.98729C34.4112 3.63578 33.9346 3.43806 33.4375 3.4375H30.625C30.8736 3.4375 31.1121 3.53627 31.2879 3.71209C31.4637 3.8879 31.5625 4.12636 31.5625 4.375Z" fill="#5477BB"/>
<path d="M9.375 32.8125C9.12636 32.8125 8.8879 32.7137 8.71209 32.5379C8.53627 32.3621 8.4375 32.1236 8.4375 31.875V4.375C8.4375 4.12636 8.53627 3.8879 8.71209 3.71209C8.8879 3.53627 9.12636 3.4375 9.375 3.4375H6.64063C6.14352 3.43806 5.66693 3.63578 5.31542 3.98729C4.96391 4.3388 4.76618 4.81539 4.76562 5.3125V34.6875C4.76618 35.1846 4.96391 35.6612 5.31542 36.0127C5.66693 36.3642 6.14352 36.5619 6.64063 36.5625H24.7109C24.0791 35.4137 23.7486 34.1236 23.75 32.8125H9.375Z" fill="#5477BB"/>
<path d="M31.5625 25.9375C30.2028 25.9375 28.8735 26.3407 27.743 27.0961C26.6124 27.8516 25.7312 28.9253 25.2108 30.1815C24.6905 31.4378 24.5543 32.8201 24.8196 34.1537C25.0849 35.4874 25.7397 36.7124 26.7011 37.6738C27.6626 38.6353 28.8876 39.2901 30.2213 39.5554C31.5549 39.8207 32.9372 39.6845 34.1934 39.1642C35.4497 38.6438 36.5234 37.7626 37.2788 36.632C38.0343 35.5014 38.4375 34.1722 38.4375 32.8125C38.4354 30.9898 37.7104 29.2423 36.4216 27.9534C35.1327 26.6646 33.3852 25.9396 31.5625 25.9375ZM35.3504 31.6004L31.6004 35.3504C31.4246 35.5262 31.1861 35.6249 30.9375 35.6249C30.6889 35.6249 30.4504 35.5262 30.2746 35.3504L28.3996 33.4754C28.2262 33.2991 28.1294 33.0614 28.1304 32.8141C28.1314 32.5668 28.2301 32.3299 28.405 32.155C28.5799 31.9801 28.8168 31.8814 29.0641 31.8804C29.3114 31.8794 29.5491 31.9762 29.7254 32.1496L30.9375 33.3616L34.0246 30.2746C34.2009 30.1012 34.4386 30.0044 34.6859 30.0054C34.9332 30.0064 35.1701 30.1051 35.345 30.28C35.5199 30.4549 35.6186 30.6918 35.6196 30.9391C35.6206 31.1864 35.5238 31.4241 35.3504 31.6004Z" fill="#5477BB"/>
</svg>
