<svg width="24" height="24" viewBox="0 0 24 24" fill="none" xmlns="http://www.w3.org/2000/svg">
<g clip-path="url(#clip0_421_175)">
<path d="M11.9999 7.42773C9.47833 7.42773 7.427 9.47906 7.427 12.0004C7.427 14.522 9.47833 16.5733 11.9999 16.5733C14.5212 16.5733 16.5726 14.522 16.5726 12.0004C16.5726 9.47906 14.5212 7.42773 11.9999 7.42773ZM14.7148 11.1393L11.4388 14.4152C11.3013 14.5527 11.121 14.6216 10.9408 14.6216C10.7606 14.6216 10.5804 14.5529 10.4429 14.4152L9.19104 13.1633C8.91602 12.8885 8.91602 12.4426 9.19104 12.1676C9.46588 11.8926 9.91174 11.8926 10.1868 12.1676L10.9408 12.9216L13.7191 10.1436C13.9939 9.86853 14.4398 9.86853 14.7148 10.1436C14.9898 10.4184 14.9898 10.8643 14.7148 11.1393Z" fill="#F69A1B"/>
<path d="M22.1948 6.51181L22.194 6.49313C22.1836 6.2626 22.1766 6.01871 22.1724 5.74734C22.1528 4.42404 21.1009 3.32944 19.7774 3.25547C17.018 3.10148 14.8834 2.2017 13.0595 0.423934L13.0439 0.409102C12.449 -0.136367 11.5516 -0.136367 10.9565 0.409102L10.9409 0.423934C9.11704 2.2017 6.9824 3.10148 4.22301 3.25565C2.89971 3.32944 1.84759 4.42404 1.82799 5.74753C1.82397 6.01706 1.81682 6.26095 1.80639 6.49313L1.80529 6.53653C1.75164 9.3503 1.68499 12.8522 2.85649 16.0307C3.50066 17.7786 4.47624 19.298 5.75596 20.547C7.21348 21.9693 9.12253 23.0986 11.43 23.9031C11.5051 23.9293 11.5831 23.9505 11.6626 23.9665C11.7746 23.9888 11.8874 24 12.0002 24C12.113 24 12.226 23.9888 12.3379 23.9665C12.4173 23.9505 12.4959 23.9291 12.5713 23.9028C14.8761 23.0967 16.7831 21.967 18.2393 20.5448C19.5185 19.2955 20.4941 17.7757 21.1388 16.0274C22.3147 12.8394 22.2482 9.33089 22.1948 6.51181ZM11.9998 17.9815C8.70175 17.9815 6.01872 15.2985 6.01872 12.0004C6.01872 8.70229 8.70175 6.01926 11.9998 6.01926C15.2977 6.01926 17.981 8.70229 17.981 12.0004C17.981 15.2985 15.2977 17.9815 11.9998 17.9815Z" fill="#F69A1B"/>
</g>
<defs>
<clipPath id="clip0_421_175">
<rect width="24" height="24" fill="white"/>
</clipPath>
</defs>
</svg>
